
<svg version="1.0" xmlns="http://www.w3.org/2000/svg"
 width="251.000000pt" height="62.000000pt" viewBox="0 0 251.000000 62.000000"
 preserveAspectRatio="xMidYMid meet">

<g transform="translate(0.000000,62.000000) scale(0.100000,-0.100000)"
fill="#000000" stroke="none">
<path d="M1140 578 c-40 -27 -83 -86 -76 -104 3 -7 -15 -24 -40 -39 -24 -14
-44 -27 -44 -29 0 -2 12 -3 28 -2 17 1 27 -4 27 -13 0 -17 -35 -24 -51 -11 -7
7 -15 1 -23 -16 -11 -25 -10 -26 13 -20 64 16 76 25 76 56 0 35 3 37 30 10 21
-21 92 -28 120 -10 9 5 19 5 26 -1 7 -6 15 -6 18 -1 3 5 17 8 31 7 20 -3 25 1
25 19 0 20 -4 22 -31 18 -31 -5 -32 -4 -25 24 4 16 9 31 11 32 7 8 25 -10 20
-19 -4 -5 1 -9 9 -9 12 0 16 11 16 46 0 51 12 54 43 13 26 -36 33 -100 14
-138 -14 -27 -14 -31 0 -31 8 0 13 -6 11 -12 -5 -13 -48 -18 -47 -6 0 4 7 24
15 44 10 24 13 50 9 75 -11 64 -25 55 -25 -15 0 -36 -4 -68 -10 -71 -5 -3 -60
-7 -123 -9 -87 -2 -120 -7 -140 -21 -22 -14 -25 -20 -16 -37 7 -13 16 -17 30
-13 11 4 26 2 33 -5 14 -11 94 -9 114 4 7 4 12 2 12 -5 0 -8 3 -9 13 0 8 6 17
7 22 3 4 -4 5 2 3 13 -2 11 -10 20 -17 20 -8 0 -16 6 -19 13 -3 9 4 12 25 9
23 -3 29 -9 31 -37 2 -18 0 -36 -5 -41 -7 -7 -42 -15 -86 -18 -4 -1 -7 -38 -5
-83 3 -75 5 -83 23 -83 11 0 25 4 32 8 7 5 17 6 23 2 6 -4 10 13 10 47 l0 54
-36 -4 c-26 -3 -35 -1 -30 7 4 6 13 11 19 11 25 1 89 37 78 44 -13 9 -14 26
-1 46 7 11 12 12 21 3 9 -9 18 -9 32 -1 15 7 22 7 28 -3 5 -9 9 17 9 64 0 86
7 93 55 55 80 -63 68 -197 -21 -234 -49 -21 -52 -13 -7 17 23 15 43 38 52 62
12 33 12 42 -4 82 -9 25 -25 50 -35 55 -16 9 -18 4 -16 -56 1 -68 -11 -89 -46
-78 -24 7 -31 -10 -35 -90 -4 -85 -9 -100 -27 -93 -8 3 -22 -3 -32 -14 -9 -10
-13 -19 -9 -19 5 0 4 -5 -2 -11 -8 -8 -17 -7 -33 4 -12 9 -29 13 -37 10 -9 -4
-20 1 -25 11 -6 11 -16 15 -29 11 -25 -8 -69 36 -69 69 0 19 -8 27 -34 36 -18
6 -42 20 -51 30 -23 25 -14 25 35 0 22 -11 46 -20 54 -20 10 0 16 -12 18 -37
3 -33 7 -38 30 -41 31 -4 34 4 41 95 l4 51 -33 -5 c-19 -3 -40 -1 -48 6 -7 6
-21 8 -30 5 -10 -4 -25 1 -36 11 -19 17 -20 17 -40 -6 -20 -24 -20 -24 -35 -5
-23 30 -18 -1 6 -40 11 -18 37 -41 58 -50 30 -13 43 -27 59 -66 17 -41 28 -52
68 -69 88 -39 182 -10 222 68 12 22 36 45 67 61 114 63 115 214 2 278 -24 13
-46 37 -59 63 -28 57 -69 84 -137 89 -46 3 -62 0 -91 -20z m140 2 c9 -6 11
-10 3 -10 -7 0 -10 -7 -7 -15 7 -16 -12 -45 -28 -45 -6 0 -5 7 2 15 11 13 8
15 -16 15 -48 0 -58 -13 -29 -40 32 -30 32 -65 0 -86 -25 -16 -27 -16 -51 7
-24 22 -26 23 -38 7 -44 -61 -56 40 -12 107 29 45 135 72 176 45z m-140 -171
c0 -5 -4 -9 -10 -9 -5 0 -10 7 -10 16 0 8 5 12 10 9 6 -3 10 -10 10 -16z m320
-105 c0 -17 -6 -36 -12 -42 -10 -8 -13 0 -12 36 2 65 3 69 14 52 5 -8 10 -29
10 -46z m-322 24 c-4 -30 -48 -39 -48 -10 0 24 8 32 32 32 14 0 19 -6 16 -22z
m45 8 c6 -16 -2 -28 -14 -20 -12 7 -11 34 0 34 5 0 11 -6 14 -14z m-126 -28
c-3 -8 -6 -5 -6 6 -1 11 2 17 5 13 3 -3 4 -12 1 -19z m-51 -75 c-11 -11 -19 6
-11 24 8 17 8 17 12 0 3 -10 2 -21 -1 -24z m404 3 c0 -22 -29 -41 -42 -28 -8
8 -8 15 2 27 16 19 40 20 40 1z m-319 -11 c0 -5 -12 -11 -26 -13 -18 -2 -25 1
-25 13 0 12 7 15 25 13 14 -2 26 -7 26 -13z m149 11 c0 -3 -4 -8 -10 -11 -5
-3 -10 -1 -10 4 0 6 5 11 10 11 6 0 10 -2 10 -4z m-94 -50 c8 -32 -2 -46 -29
-45 -13 0 -16 3 -8 6 10 4 10 7 1 13 -9 6 -9 13 -1 29 15 28 29 27 37 -3z
m114 -32 c0 -8 -4 -14 -9 -14 -11 0 -22 26 -14 34 9 9 23 -3 23 -20z m-38 -9
c0 -5 -5 -11 -11 -13 -6 -2 -11 4 -11 13 0 9 5 15 11 13 6 -2 11 -8 11 -13z
m-62 -90 c0 -8 -4 -15 -10 -15 -5 0 -10 7 -10 15 0 8 5 15 10 15 6 0 10 -7 10
-15z"/>
<path d="M1185 569 c-17 -4 -44 -22 -60 -39 l-30 -31 27 10 c19 7 29 7 34 0 9
-15 -4 -24 -34 -24 -22 -1 -28 -6 -30 -30 l-3 -30 16 23 c19 26 37 28 55 7 12
-14 50 -21 50 -9 0 3 -12 21 -27 41 -33 43 -24 63 38 79 28 8 35 12 19 12 -14
0 -39 -4 -55 -9z"/>
<path d="M997 452 c-28 -19 -56 -51 -57 -65 0 -5 12 6 27 24 15 17 41 38 58
45 16 7 23 13 15 14 -8 0 -27 -8 -43 -18z"/>
<path d="M94 440 c-12 -5 -29 -19 -38 -31 -22 -32 -4 -56 70 -94 41 -21 59
-36 59 -49 0 -27 -43 -37 -88 -21 -36 12 -37 12 -37 -11 0 -29 32 -39 96 -30
125 17 132 91 13 143 -64 28 -74 47 -34 65 20 9 34 9 59 0 18 -7 35 -12 39
-12 14 0 6 38 -9 44 -23 9 -105 6 -130 -4z"/>
<path d="M635 324 l0 -126 80 4 c93 5 145 27 145 61 0 28 -9 41 -39 57 -21 11
-22 14 -8 22 23 12 38 43 31 61 -9 25 -80 47 -147 47 l-62 0 0 -126z m145 70
c13 -14 13 -17 -9 -35 -13 -10 -34 -19 -47 -19 -21 0 -24 4 -24 41 0 41 0 41
32 35 18 -4 40 -13 48 -22z m-1 -93 c11 -7 21 -18 21 -26 0 -20 -40 -45 -72
-45 -27 0 -28 2 -28 49 l0 50 29 -9 c15 -4 38 -13 50 -19z"/>
<path d="M1598 325 l-3 -127 59 4 c49 4 63 9 82 31 25 29 23 48 -8 83 -17 19
-17 22 -3 34 21 17 19 53 -5 75 -11 10 -41 20 -69 23 l-50 4 -3 -127z m82 81
c16 -20 9 -60 -12 -64 -15 -3 -18 4 -18 37 0 43 9 51 30 27z m1 -96 c33 -18
19 -80 -18 -80 -9 0 -13 15 -13 45 0 49 1 50 31 35z"/>
<path d="M1800 333 c-30 -64 -56 -120 -58 -125 -2 -4 13 -8 33 -8 29 0 36 3
31 15 -3 8 -1 26 4 40 8 21 16 25 49 25 36 0 40 -3 46 -30 4 -16 4 -34 0 -40
-4 -6 7 -10 29 -10 l35 0 -51 118 c-28 64 -54 120 -57 124 -3 4 -31 -45 -61
-109z m70 -4 c0 -5 -7 -9 -15 -9 -9 0 -12 6 -9 15 6 15 24 11 24 -6z"/>
<path d="M1960 441 c0 -5 7 -12 16 -15 13 -5 15 -23 12 -116 l-3 -110 28 0 27
0 0 75 0 76 66 -76 c39 -45 73 -75 85 -75 18 0 19 8 19 125 l0 125 -25 0 c-25
0 -25 -1 -25 -85 l0 -86 -67 78 c-37 43 -72 81 -78 85 -14 11 -55 10 -55 -1z"/>
<path d="M2255 325 l0 -125 26 0 c25 0 25 1 22 63 l-4 62 28 -30 c15 -17 40
-45 55 -63 21 -25 35 -32 53 -30 24 3 23 5 -30 65 -30 33 -55 65 -55 69 0 5
23 32 52 61 l52 53 -30 0 c-25 0 -38 -10 -70 -50 -21 -27 -43 -49 -48 -50 -5
0 -6 23 -4 50 5 48 4 50 -21 50 l-26 0 0 -125z"/>
<path d="M286 424 c-3 -9 -6 -17 -6 -19 0 -2 27 -1 61 2 l61 6 -4 -107 -3
-106 35 0 35 0 -3 109 -4 108 49 -8 c40 -6 51 -4 68 12 19 19 17 19 -132 19
-128 0 -152 -2 -157 -16z"/>
<path d="M922 315 c0 -16 2 -22 5 -12 2 9 2 23 0 30 -3 6 -5 -1 -5 -18z"/>
<path d="M950 300 c0 -11 3 -20 8 -20 4 0 13 9 20 20 11 18 10 20 -8 20 -13 0
-20 -7 -20 -20z"/>
<path d="M1303 165 c0 -27 2 -38 4 -22 2 15 2 37 0 50 -2 12 -4 0 -4 -28z"/>
</g>
</svg>
